<svg width="198" height="25" viewBox="0 0 198 25" xmlns="http://www.w3.org/2000/svg" fill="none"><rect x="0.5" y="0.5" width="197" height="24" rx="1.5" style="fill:white;stroke:#CCC"/><path d="M17.3 10.3L14.4 17H13.5L16.3 10.7H12.5V10H17.3V10.3ZM23.8 17H22.6L19.9 13.8C19.8 13.7 19.8 13.6 19.8 13.6H19.7V17H18.9V10H19.7V13.3H19.8C19.8 13.2 19.9 13.1 19.9 13L22.6 10H23.6L20.6 13.4 23.8 17ZM24.6 16.7V15.9C25.1 16.3 25.7 16.4 26.4 16.4 27 16.4 27.4 16.3 27.8 16.1 28.1 15.8 28.3 15.5 28.3 15.1 28.3 14.2 27.5 13.7 25.9 13.7H25.3V13H25.9C27.3 13 28 12.6 28 11.8 28 11 27.5 10.6 26.5 10.6 25.9 10.6 25.3 10.7 24.8 11.1V10.3C25.3 10 25.9 9.9 26.6 9.9 27.3 9.9 27.8 10 28.2 10.3 28.6 10.7 28.8 11.1 28.8 11.6 28.8 12.5 28.4 13.1 27.4 13.3V13.3C27.9 13.4 28.3 13.6 28.6 13.9 28.9 14.2 29.1 14.6 29.1 15 29.1 15.6 28.8 16.2 28.3 16.5 27.8 16.9 27.2 17.1 26.3 17.1 25.6 17.1 25 17 24.6 16.7ZM34 11.8C34 11.4 33.9 11.1 33.7 10.9 33.4 10.7 33.1 10.6 32.7 10.6 32.4 10.6 32.1 10.6 31.8 10.8 31.5 10.9 31.2 11.2 31 11.4V10.6C31.2 10.3 31.5 10.1 31.8 10 32.1 9.9 32.4 9.9 32.8 9.9 33.4 9.9 33.9 10.1 34.3 10.4 34.7 10.7 34.9 11.2 34.9 11.8 34.9 12.3 34.7 12.7 34.5 13.1 34.2 13.5 33.8 13.9 33.2 14.3 32.6 14.7 32.2 15 32 15.2 31.9 15.4 31.7 15.5 31.7 15.7 31.6 15.9 31.5 16.1 31.5 16.3H35.1V17H30.7V16.7C30.7 16.3 30.8 16 30.9 15.7 31 15.4 31.1 15.2 31.4 14.9 31.6 14.7 32 14.3 32.7 13.9 33.2 13.6 33.5 13.2 33.7 12.9 33.9 12.6 34 12.2 34 11.8ZM38.9 17.1C38.7 17.1 38.5 17.1 38.3 17.1 38.1 17 38 17 37.8 16.9 37.7 16.8 37.5 16.7 37.4 16.6 37.3 16.4 37.1 16.3 37 16.1 36.6 15.5 36.4 14.6 36.4 13.6 36.4 12.5 36.6 11.6 37 10.9 37.5 10.2 38.1 9.9 39 9.9 39.8 9.9 40.4 10.2 40.9 10.9 41.3 11.5 41.5 12.4 41.5 13.4 41.5 13.9 41.5 14.3 41.4 14.7 41.3 15.1 41.2 15.4 41.1 15.7 40.9 16.1 40.7 16.3 40.5 16.6 40.2 16.8 40 16.9 39.7 17 39.8 17.2 39.9 17.4 40.1 17.5 40.2 17.6 40.3 17.7 40.4 17.8 40.6 17.9 40.7 18 40.8 18.1 41 18.1 41.1 18.1 41.3 18.1 41.3 18.1 41.4 18.1 41.4 18.1 41.5 18.1 41.5 18.1 41.6 18.1 41.6 18.1 41.7 18.1 41.7 18.1 41.8 18 41.8 18 41.9 18V18.8C41.8 18.8 41.8 18.8 41.7 18.8 41.7 18.8 41.6 18.9 41.6 18.9 41.5 18.9 41.5 18.9 41.4 18.9 41.3 18.9 41.3 18.9 41.2 18.9 41 18.9 40.7 18.8 40.5 18.8 40.3 18.7 40.1 18.5 39.9 18.4 39.8 18.2 39.6 18 39.4 17.8 39.2 17.6 39.1 17.4 38.9 17.1ZM39 10.6C38.3 10.6 37.9 10.9 37.6 11.4 37.4 11.9 37.2 12.6 37.2 13.5 37.2 14.4 37.4 15.1 37.6 15.6 37.9 16.1 38.3 16.4 38.9 16.4 39.6 16.4 40 16.1 40.3 15.6 40.5 15.1 40.7 14.4 40.7 13.5 40.7 12.6 40.5 11.9 40.3 11.4 40 10.9 39.6 10.6 39 10.6ZM46.3 14.5H43.6V13.9H46.3V14.5ZM52.6 14.5C52.6 15.3 52.3 16 51.8 16.4 51.3 16.9 50.6 17.1 49.8 17.1 49.4 17.1 49 17.1 48.8 17V16.2C49.1 16.3 49.5 16.4 49.9 16.4 51.1 16.4 51.7 15.8 51.7 14.5V10H52.6V14.5ZM59.4 15.1H58.5V17H57.8V15.1H54.5V14.6L57.6 10H58.5V14.5H59.4V15.1ZM57.8 14.5V11.5C57.8 11.2 57.8 11 57.8 10.7H57.8C57.7 10.9 57.6 11 57.5 11.3L55.3 14.5H57.8ZM62.9 17.1C62.1 17.1 61.5 16.8 61 16.1 60.6 15.5 60.4 14.6 60.4 13.6 60.4 12.5 60.6 11.6 61.1 10.9 61.5 10.2 62.2 9.9 63 9.9 63.9 9.9 64.5 10.2 64.9 10.9 65.3 11.5 65.5 12.4 65.5 13.4 65.5 14.6 65.3 15.5 64.9 16.1 64.4 16.8 63.8 17.1 62.9 17.1ZM63 10.6C62.4 10.6 61.9 10.9 61.7 11.4 61.4 11.9 61.2 12.6 61.2 13.5 61.2 14.4 61.4 15.1 61.6 15.6 61.9 16.1 62.3 16.4 62.9 16.4 63.6 16.4 64 16.1 64.3 15.6 64.6 15.1 64.7 14.4 64.7 13.5 64.7 12.6 64.6 11.9 64.3 11.4 64 10.9 63.6 10.6 63 10.6ZM68.9 17.1C68.2 17.1 67.7 16.8 67.3 16.2 66.9 15.6 66.7 14.8 66.7 13.6 66.7 12.4 66.9 11.5 67.3 10.8 67.7 10.2 68.3 9.9 69 9.9 70.5 9.9 71.2 11.1 71.2 13.5 71.2 14.7 71 15.6 70.6 16.2 70.2 16.8 69.6 17.1 68.9 17.1ZM69 10.6C68 10.6 67.5 11.6 67.5 13.6 67.5 14.3 67.6 14.8 67.7 15.3L69.9 11C69.7 10.7 69.4 10.6 69 10.6ZM69 16.4C69.9 16.4 70.4 15.5 70.4 13.6 70.4 12.8 70.4 12.3 70.2 11.8L68 16C68.3 16.3 68.6 16.4 69 16.4ZM72.9 17V10H75.3C75.9 10 76.4 10.1 76.7 10.4 77.1 10.7 77.3 11.1 77.3 11.6 77.3 12 77.2 12.4 77 12.6 76.8 12.9 76.4 13.1 76 13.3V13.3C76.5 13.4 76.8 13.6 77.1 13.9 77.3 14.2 77.4 14.6 77.4 15 77.4 15.6 77.2 16.1 76.8 16.4 76.4 16.8 75.8 17 75.2 17H72.9ZM73.7 10.7V13H74.9C75.4 13 75.7 12.9 76 12.7 76.3 12.5 76.4 12.2 76.4 11.8 76.4 11.1 76 10.7 75.1 10.7H73.7ZM73.7 13.7V16.3H75C75.5 16.3 75.9 16.1 76.2 15.9 76.4 15.7 76.6 15.4 76.6 15 76.6 14.2 76 13.7 74.9 13.7H73.7ZM82.3 14.5H79.6V13.9H82.3V14.5ZM89.8 10L87.4 17H86.5L84.2 10H85.1L86.8 15.5C86.9 15.7 86.9 15.9 87 16.2H87C87 16 87.1 15.7 87.1 15.5L88.9 10H89.8ZM95.1 17H91V10H95V10.7H91.9V13.1H94.8V13.8H91.9V16.3H95.1V17ZM98.2 13.3V13.3C97.3 12.9 96.8 12.4 96.8 11.6 96.8 11.1 97 10.7 97.4 10.4 97.9 10 98.4 9.9 99.1 9.9 99.7 9.9 100.2 10 100.6 10.3 101 10.6 101.2 11 101.2 11.5 101.2 12.3 100.7 12.9 99.8 13.3V13.3C100.9 13.7 101.4 14.3 101.4 15.2 101.4 15.8 101.2 16.3 100.8 16.6 100.3 16.9 99.7 17.1 98.9 17.1 98.2 17.1 97.6 16.9 97.2 16.6 96.8 16.3 96.6 15.8 96.6 15.3 96.6 14.4 97.1 13.7 98.2 13.3ZM100.3 11.6C100.3 11.3 100.2 11 100 10.8 99.8 10.7 99.4 10.6 99 10.6 98.6 10.6 98.3 10.7 98.1 10.9 97.8 11 97.7 11.3 97.7 11.6 97.7 12.2 98.1 12.7 99 13 99.9 12.6 100.3 12.2 100.3 11.6ZM98.9 13.7C97.9 14.1 97.4 14.6 97.4 15.3 97.4 15.6 97.6 15.9 97.8 16.1 98.1 16.3 98.5 16.4 99 16.4 99.5 16.4 99.9 16.3 100.1 16.1 100.4 15.9 100.6 15.6 100.6 15.3 100.6 14.6 100 14.1 98.9 13.7ZM107.3 16.7C106.8 17 106.3 17.1 105.6 17.1 104.7 17.1 104 16.8 103.5 16.2 103 15.5 102.7 14.7 102.7 13.6 102.7 12.5 103 11.6 103.6 10.9 104.2 10.2 104.9 9.9 105.9 9.9 106.4 9.9 106.9 10 107.3 10.2V11C106.9 10.8 106.4 10.6 105.9 10.6 105.2 10.6 104.6 10.9 104.2 11.4 103.8 12 103.6 12.7 103.6 13.6 103.6 14.4 103.8 15.1 104.2 15.6 104.6 16.1 105.1 16.4 105.7 16.4 106.3 16.4 106.9 16.2 107.3 15.9V16.7ZM113.6 17H112.8V12.5C112.8 12 112.8 11.5 112.9 10.9H112.8C112.7 11.4 112.7 11.6 112.6 11.7L111.4 15.5H110.7L109.3 11.5C109.3 11.5 109.3 11.3 109.2 10.9H109.2C109.2 11.4 109.2 12 109.2 12.6V17H108.5V10H109.6L110.7 13.3C110.8 13.7 110.9 13.9 110.9 14 110.9 14.2 111 14.3 111 14.5H111C111.1 14.4 111.1 14.2 111.1 14.1 111.2 13.9 111.2 13.8 111.2 13.6 111.3 13.5 111.7 12.3 112.4 10H113.6V17ZM118.3 14.5H115.7V13.9H118.3V14.5ZM121.1 16.9V16.1C121.5 16.3 121.9 16.4 122.4 16.4 123.1 16.4 123.6 16.2 124 15.7 124.4 15.2 124.6 14.4 124.6 13.5 124.6 13.5 124.6 13.5 124.6 13.5 124.2 14.1 123.7 14.4 122.9 14.4 122.2 14.4 121.7 14.2 121.3 13.8 120.9 13.4 120.6 12.9 120.6 12.2 120.6 11.5 120.9 11 121.3 10.5 121.8 10.1 122.3 9.9 123 9.9 123.8 9.9 124.4 10.2 124.8 10.7 125.2 11.2 125.4 12 125.4 13.1 125.4 14.4 125.1 15.4 124.6 16.1 124.1 16.8 123.3 17.1 122.4 17.1 121.9 17.1 121.4 17 121.1 16.9ZM123 10.6C122.5 10.6 122.2 10.7 121.9 11 121.6 11.3 121.5 11.7 121.5 12.1 121.5 12.6 121.6 13 121.9 13.3 122.2 13.5 122.5 13.7 123 13.7 123.4 13.7 123.8 13.6 124.1 13.3 124.4 13 124.5 12.7 124.5 12.4 124.5 11.8 124.4 11.4 124.1 11.1 123.8 10.7 123.4 10.6 123 10.6ZM131.2 17H130.4V13.8H127.7V17H126.8V10H127.7V13.1H130.4V10H131.2V17ZM137.6 10.7H135.4V17H134.6V10.7H132.5V10H137.6V10.7ZM138.9 16.8V16C139.4 16.3 140 16.4 140.5 16.4 141.1 16.4 141.5 16.3 141.9 16 142.2 15.7 142.4 15.4 142.4 14.9 142.4 14.5 142.2 14.1 141.9 13.8 141.5 13.6 141 13.5 140.3 13.5 140.1 13.5 139.7 13.5 139.1 13.5V10H142.9V10.7H139.9V12.8C140.1 12.8 140.3 12.8 140.5 12.8 141.4 12.8 142 12.9 142.5 13.3 143 13.7 143.2 14.2 143.2 14.9 143.2 15.5 143 16.1 142.5 16.5 142 16.9 141.3 17.1 140.5 17.1 139.8 17.1 139.2 17 138.9 16.8ZM149.4 17H148.4L145.7 11.8C145.7 11.5 145.6 11.3 145.5 11.2H145.5C145.5 11.3 145.5 11.6 145.5 12.1V17H144.7V10H145.7L148.3 15.1C148.4 15.4 148.5 15.6 148.6 15.8H148.6C148.6 15.6 148.6 15.2 148.6 14.7V10H149.4V17ZM154.4 14.5H151.7V13.9H154.4V14.5ZM161.9 17H160.9L159.3 14.3C159.2 14.2 159.2 14.1 159.1 14H159.1C159 14 159 14.2 158.9 14.3L157.2 17H156.2L158.6 13.5 156.4 10H157.4L158.9 12.5C159 12.6 159 12.8 159.1 12.9H159.1C159.2 12.7 159.3 12.6 159.4 12.4L160.9 10H161.8L159.6 13.5 161.9 17ZM167.2 17H163.2V16.3H164.8V10.9L163.2 11.3V10.6L165.6 9.8V16.3H167.2V17ZM173 10.1V10.8C172.6 10.7 172.2 10.6 171.8 10.6 171.1 10.6 170.5 10.8 170.1 11.4 169.7 11.9 169.5 12.7 169.5 13.6H169.5C169.9 13 170.5 12.6 171.3 12.6 171.9 12.6 172.5 12.8 172.9 13.2 173.2 13.6 173.4 14.1 173.4 14.8 173.4 15.5 173.2 16 172.8 16.5 172.3 16.9 171.8 17.1 171.1 17.1 170.3 17.1 169.8 16.8 169.3 16.3 168.9 15.7 168.7 14.9 168.7 13.9 168.7 12.7 169 11.7 169.5 11 170.1 10.2 170.8 9.9 171.8 9.9 172.3 9.9 172.7 9.9 173 10.1ZM171.1 13.3C170.7 13.3 170.3 13.4 170 13.7 169.7 14 169.6 14.3 169.6 14.7 169.6 15.2 169.7 15.6 170 15.9 170.3 16.3 170.7 16.4 171.1 16.4 171.6 16.4 171.9 16.3 172.2 16 172.5 15.7 172.6 15.3 172.6 14.9 172.6 14.4 172.5 14 172.2 13.7 172 13.4 171.6 13.3 171.1 13.3ZM180.1 17H179.1L177.9 15C177.8 14.9 177.7 14.7 177.6 14.6 177.5 14.4 177.4 14.3 177.3 14.3 177.2 14.2 177.1 14.1 177 14.1 176.8 14 176.7 14 176.5 14H175.9V17H175.1V10H177.1C177.4 10 177.7 10 178 10.1 178.2 10.2 178.5 10.3 178.7 10.5 178.9 10.6 179 10.8 179.1 11 179.2 11.3 179.3 11.6 179.3 11.9 179.3 12.1 179.2 12.3 179.2 12.5 179.1 12.7 179 12.9 178.8 13.1 178.7 13.2 178.5 13.4 178.4 13.5 178.2 13.6 178 13.7 177.7 13.7V13.8C177.8 13.8 177.9 13.9 178 13.9 178.1 14 178.2 14.1 178.3 14.2 178.3 14.3 178.4 14.4 178.5 14.5 178.6 14.6 178.7 14.7 178.8 14.9L180.1 17ZM175.9 10.7V13.3H177C177.2 13.3 177.4 13.2 177.6 13.2 177.7 13.1 177.9 13 178 12.9 178.1 12.8 178.2 12.7 178.3 12.5 178.4 12.3 178.4 12.1 178.4 11.9 178.4 11.6 178.3 11.3 178 11.1 177.8 10.8 177.5 10.7 177 10.7H175.9ZM185.7 10.2L181.6 16.3H185.6V17H180.4V16.8L184.5 10.7H180.7V10H185.7V10.2Z" fill="#333"/></svg>